<svg height="48" viewBox="0 0 48 48" width="48" xmlns="http://www.w3.org/2000/svg"><path d="m.03.03h47.94v47.94h-47.94z" fill="#fff" opacity="0"/><path d="m24 4.88c-10.62 0-19.21 8.58-19.21 19.2 0 8.49 5.5 15.68 13.13 18.22.95.19 1.3-.41 1.3-.92 0-.45-.03-1.97-.03-3.56-5.34 1.14-6.46-2.29-6.46-2.29-.86-2.23-2.13-2.8-2.13-2.8-1.75-1.18.13-1.18.13-1.18 1.94.13 2.96 1.97 2.96 1.97 1.72 2.93 4.48 2.1 5.6 1.59.16-1.24.67-2.1 1.21-2.58-4.26-.45-8.74-2.1-8.74-9.48 0-2.1.76-3.82 1.97-5.15-.19-.48-.86-2.45.19-5.09 0 0 1.62-.51 5.28 1.97 1.53-.41 3.18-.64 4.8-.64s3.28.22 4.8.64c3.66-2.48 5.28-1.97 5.28-1.97 1.05 2.64.38 4.61.19 5.09 1.24 1.34 1.97 3.05 1.97 5.15 0 7.38-4.48 9-8.78 9.48.7.6 1.3 1.75 1.3 3.56 0 2.58-.03 4.64-.03 5.28 0 .51.35 1.11 1.3.92 7.63-2.54 13.13-9.73 13.13-18.22.03-10.62-8.59-19.21-19.18-19.21z" fill="#221e1b" fill-rule="evenodd"/></svg>