<svg height="48" viewBox="0 0 48 48" width="48" xmlns="http://www.w3.org/2000/svg"><path d="m.03.03h47.94v47.94h-47.94z" fill="#fff" opacity="0"/><path d="m17.82 25.64c-.09-.43-.15-.87-.15-1.32 0-3.39 2.76-6.15 6.15-6.15.45 0 .89.06 1.32.15l1.64-1.64c-.92-.36-1.91-.56-2.96-.56-4.52 0-8.2 3.68-8.2 8.2 0 1.04.2 2.04.56 2.96z"/><path d="m29.65 22.45c.19.59.32 1.21.32 1.86 0 3.39-2.76 6.15-6.15 6.15-.65 0-1.27-.13-1.86-.32l-1.59 1.59c1.05.49 2.22.77 3.46.77 4.52 0 8.2-3.68 8.2-8.2 0-1.24-.28-2.4-.77-3.46l-1.59 1.59z"/><path d="m10.11 33.35 1.45-1.45c-1.48-1.29-2.79-2.81-3.85-4.56-1.16-1.91-1.16-4.38 0-6.29 3.49-5.74 9.58-9.17 16.28-9.17 2.25 0 4.43.4 6.47 1.13l1.59-1.59c-2.51-1.03-5.23-1.59-8.06-1.59-7.42 0-14.16 3.8-18.03 10.16-1.55 2.56-1.55 5.86 0 8.42 1.15 1.89 2.55 3.54 4.15 4.95z"/><path d="m42.01 19.99c-1.25-2.05-2.8-3.84-4.58-5.32l-1.46 1.46c1.67 1.36 3.12 3.01 4.29 4.92 1.16 1.91 1.16 4.38 0 6.29-3.49 5.74-9.58 9.17-16.28 9.17-2.47 0-4.85-.47-7.05-1.34l-1.56 1.56c2.66 1.19 5.57 1.83 8.61 1.83 7.42 0 14.16-3.8 18.03-10.16 1.55-2.56 1.55-5.86 0-8.42z"/><path d="m9.77 39.05c-.26 0-.53-.1-.73-.3-.4-.4-.4-1.05 0-1.45l28.11-28.02c.4-.4 1.05-.4 1.45 0s.4 1.05 0 1.45l-28.11 28.02c-.2.2-.46.3-.72.3z"/></svg>