<svg height="48" viewBox="0 0 48 48" width="48" xmlns="http://www.w3.org/2000/svg"><path d="m0-2.63h47.94v47.94h-47.94z" fill="#fff" opacity="0"/><path d="m43.06 16.11c-.09-2.04-.42-3.44-.89-4.65-.48-1.28-1.24-2.44-2.21-3.4-.96-.98-2.12-1.73-3.4-2.21-1.22-.47-2.61-.8-4.65-.89-2.05-.09-2.7-.12-7.91-.12s-5.86.02-7.91.12c-2.04.09-3.44.42-4.65.89-1.28.48-2.44 1.24-3.4 2.21-.98.96-1.73 2.12-2.21 3.4-.47 1.22-.8 2.61-.89 4.65-.09 2.05-.12 2.7-.12 7.91s.02 5.86.12 7.91c.09 2.04.42 3.44.89 4.65.48 1.28 1.24 2.44 2.21 3.4.96.98 2.12 1.73 3.4 2.21 1.22.47 2.61.8 4.65.89 2.05.09 2.7.12 7.91.12s5.86-.02 7.91-.12c2.04-.09 3.44-.42 4.65-.89 2.58-1 4.61-3.03 5.61-5.61.47-1.22.8-2.61.89-4.65.09-2.05.12-2.7.12-7.91s-.02-5.86-.12-7.91zm-3.45 15.66c-.09 1.87-.4 2.88-.66 3.56-.65 1.67-1.97 2.99-3.64 3.64-.68.26-1.69.58-3.56.66-2.02.09-2.63.11-7.75.11s-5.73-.02-7.75-.11c-1.87-.09-2.88-.4-3.56-.66-.83-.31-1.59-.8-2.2-1.43-.64-.62-1.13-1.37-1.43-2.2-.26-.68-.58-1.69-.66-3.56-.09-2.02-.11-2.63-.11-7.75s.02-5.73.11-7.75c.09-1.87.4-2.88.66-3.56.31-.83.8-1.59 1.43-2.2.62-.64 1.37-1.13 2.2-1.43.68-.26 1.69-.58 3.56-.66 2.02-.09 2.63-.11 7.75-.11 5.12 0 5.73.02 7.75.11 1.87.09 2.88.4 3.56.66.83.31 1.59.8 2.2 1.43.64.62 1.13 1.37 1.43 2.2.26.68.58 1.69.66 3.56.09 2.02.11 2.63.11 7.75s-.02 5.73-.11 7.75z"/><path d="m24 14.17c-5.44 0-9.85 4.41-9.85 9.85s4.41 9.85 9.85 9.85 9.85-4.41 9.85-9.85-4.41-9.85-9.85-9.85zm0 16.24c-3.53 0-6.39-2.86-6.39-6.39s2.86-6.39 6.39-6.39 6.39 2.86 6.39 6.39-2.86 6.39-6.39 6.39z"/><circle cx="34.24" cy="13.78" r="2.3"/></svg>