<svg height="48" viewBox="0 0 48 48" width="48" xmlns="http://www.w3.org/2000/svg"><path d="m.03.03h47.94v47.94h-47.94z" fill="#fff" opacity="0"/><path d="m.06.03h47.94v47.94h-47.94z" fill="#fff" opacity="0"/><g fill="#1d1d1b" fill-rule="evenodd"><path d="m14.65 39.97v-22.08h-7.34v22.08zm-3.67-25.1c2.56 0 4.15-1.7 4.15-3.82-.05-2.17-1.59-3.82-4.1-3.82s-4.15 1.65-4.15 3.82 1.59 3.82 4.06 3.82h.05z"/><path d="m18.71 39.97h7.34v-12.33c0-.66.05-1.32.24-1.79.53-1.32 1.74-2.68 3.77-2.68 2.66 0 3.72 2.03 3.72 4.99v11.81h7.34v-12.66c0-6.78-3.62-9.94-8.45-9.94-3.96 0-5.7 2.21-6.66 3.72h.05v-3.2h-7.34c.1 2.07 0 22.08 0 22.08z"/></g></svg>