<svg height="48" viewBox="0 0 48 48" width="48" xmlns="http://www.w3.org/2000/svg"><path d="m.03.03h47.94v47.94h-47.94z" fill="#fff" opacity="0"/><path d="m.03.04h47.94v47.94h-47.94z" fill="#fff" opacity="0"/><path d="m24 38.35c-7.42 0-14.15-3.79-18.01-10.15-1.55-2.55-1.55-5.86 0-8.41 3.86-6.35 10.6-10.15 18.01-10.15s14.15 3.79 18.01 10.15c1.55 2.55 1.55 5.86 0 8.41-3.86 6.35-10.6 10.15-18.01 10.15zm0-26.66c-6.69 0-12.77 3.43-16.26 9.16-1.16 1.91-1.16 4.38 0 6.28 3.49 5.74 9.57 9.16 16.26 9.16s12.77-3.43 16.26-9.16c1.16-1.91 1.16-4.38 0-6.28-3.49-5.74-9.57-9.16-16.26-9.16z"/><path d="m23.86 32.31c-4.52 0-8.19-3.68-8.19-8.19s3.68-8.19 8.19-8.19 8.19 3.68 8.19 8.19-3.68 8.19-8.19 8.19zm0-14.34c-3.39 0-6.15 2.76-6.15 6.15s2.76 6.15 6.15 6.15 6.15-2.76 6.15-6.15-2.76-6.15-6.15-6.15z"/></svg>